<?xml version="1.0" encoding="UTF-8"?>
<svg width="382px" height="382px" viewBox="0 0 382 382" version="1.1" xmlns="http://www.w3.org/2000/svg" xmlns:xlink="http://www.w3.org/1999/xlink">
    <!-- Generator: Sketch 42 (36781) - http://www.bohemiancoding.com/sketch -->
    <title>Group Copy 4</title>
    <desc>Created with Sketch.</desc>
    <defs>
        <rect id="path-1" x="0" y="0" width="362" height="362"></rect>
        <mask id="mask-2" maskContentUnits="userSpaceOnUse" maskUnits="objectBoundingBox" x="-10" y="-10" width="382" height="382">
            <rect x="-10" y="-10" width="382" height="382" fill="white"></rect>
            <use xlink:href="#path-1" fill="black"></use>
        </mask>
    </defs>
    <g id="Page-1" stroke="none" stroke-width="1" fill="none" fill-rule="evenodd">
        <g id="Desktop-HD" transform="translate(-2343.000000, -445.000000)">
            <g id="Group-Copy-4" transform="translate(2353.000000, 455.000000)">
                <g id="Group-3">
                    <use id="Rectangle-2-Copy-2" stroke="#000000" mask="url(#mask-2)" stroke-width="20" xlink:href="#path-1"></use>
                    <path d="M65.1974383,211.527062 C65.1974383,214.520505 66.2650107,217.079378 68.4001874,219.203757 C70.5353642,221.328136 73.1072431,222.390309 76.1159013,222.390309 C79.1245595,222.390309 81.6964384,221.328136 83.8316151,219.203757 C85.9667919,217.079378 87.0343643,214.520505 87.0343643,211.527062 L87.0343643,200.663814 L105.231803,200.663814 L105.231803,211.527062 C105.231803,219.541764 102.393031,226.373472 96.7154014,232.022389 C91.0377723,237.671305 84.1713409,240.495722 76.1159013,240.495722 C68.1575151,240.495722 61.3153468,237.671305 55.5891909,232.022389 C49.863035,226.373472 47,219.541764 47,211.527062 L47,150.113503 C47,142.0988 49.863035,135.267093 55.5891909,129.618176 C61.3153468,123.969259 68.1575151,121.144843 76.1159013,121.144843 C84.1713409,121.144843 91.0377723,123.969259 96.7154014,129.618176 C102.393031,135.267093 105.231803,142.0988 105.231803,150.113503 L105.231803,160.97675 L87.0343643,160.97675 L87.0343643,150.113503 C87.0343643,147.12006 85.9667919,144.561187 83.8316151,142.436808 C81.6964384,140.312429 79.1245595,139.250256 76.1159013,139.250256 C73.1072431,139.250256 70.5353642,140.312429 68.4001874,142.436808 C66.2650107,144.561187 65.1974383,147.12006 65.1974383,150.113503 L65.1974383,211.527062 Z M163.60731,157.210825 L192.723211,157.210825 L192.723211,175.316237 L163.60731,175.316237 L163.60731,204.284897 L145.409872,204.284897 L145.409872,175.316237 L116.293971,175.316237 L116.293971,157.210825 L145.409872,157.210825 L145.409872,128.242165 L163.60731,128.242165 L163.60731,157.210825 Z M192.723211,222.390309 L192.723211,240.495722 L116.293971,240.495722 L116.293971,222.390309 L192.723211,222.390309 Z M220.816307,240.495722 L199.707279,121 L219.360512,121 L231.88035,209.933785 L246.438301,121 L268.420806,121 L282.978757,209.354412 L295.353015,121 L315.006248,121 L293.89722,240.495722 L271.332396,240.495722 L257.502343,155.907235 L243.52671,240.495722 L220.816307,240.495722 Z" id="Mask-Copy-7" fill="#000000"></path>
                </g>
            </g>
        </g>
    </g>
</svg>